<svg width="30" height="29" viewBox="0 0 30 29" fill="none" xmlns="http://www.w3.org/2000/svg">
<path fill-rule="evenodd" clip-rule="evenodd" d="M19 10V3C19 2.44772 19.4477 2 20 2H27C27.5523 2 28 2.44771 28 3V10C28 10.5523 27.5523 11 27 11H20C19.4477 11 19 10.5523 19 10ZM20 13C18.3431 13 17 11.6569 17 10V3C17 1.34315 18.3431 0 20 0H27C28.6569 0 30 1.34315 30 3V10C30 11.6569 28.6569 13 27 13H20ZM10 7H3C2.44772 7 2 7.44772 2 8V16H11V8C11 7.44771 10.5523 7 10 7ZM2 26V18H11V27H3C2.44772 27 2 26.5523 2 26ZM13 27V18H21C21.5523 18 22 18.4477 22 19V26C22 26.5523 21.5523 27 21 27H13ZM11 29H13H21C22.6569 29 24 27.6569 24 26V19C24 17.3431 22.6569 16 21 16H13V8C13 6.34315 11.6569 5 10 5H3C1.34315 5 0 6.34315 0 8V16V18V26C0 27.6569 1.34315 29 3 29H11Z" fill="#1F1F1F"/>
</svg>
