<svg width="26" height="29" viewBox="0 0 26 29" fill="none" xmlns="http://www.w3.org/2000/svg">
<path fill-rule="evenodd" clip-rule="evenodd" d="M10 0H11H13H21V0.156847L25.9311 5.08797C25.9554 5.24691 25.9734 5.40789 25.9849 5.57066L26 5.58579V8V11.0858V20C26 21.1046 25.1046 22 24 22H10C8.89543 22 8 21.1046 8 20V2C8 0.89543 8.89543 0 10 0ZM18.5 2H11H10L10 20H24V8H19.5H18.5V7V2ZM20.5 6V2.91421L23.5858 6H20.5Z" fill="#636363"/>
<path fill-rule="evenodd" clip-rule="evenodd" d="M3 7H8V9H3C2.44772 9 2 9.44772 2 10L2 27H17V22H19V27C19 28.1046 18.1046 29 17 29H2C0.895431 29 0 28.1046 0 27V10C0 8.34315 1.34315 7 3 7Z" fill="#636363"/>
</svg>
