<svg width="28" height="29" viewBox="0 0 28 29" fill="none" xmlns="http://www.w3.org/2000/svg">
<path fill-rule="evenodd" clip-rule="evenodd" d="M25.2385 10C25.2385 14.4183 21.6568 18 17.2385 18C12.8202 18 9.23849 14.4183 9.23849 10C9.23849 5.58172 12.8202 2 17.2385 2C21.6568 2 25.2385 5.58172 25.2385 10ZM27.2385 10C27.2385 15.5228 22.7613 20 17.2385 20C14.983 20 12.9019 19.2533 11.2289 17.9935L1.47697 28.6743L0 27.3257L9.75881 16.6375C8.1908 14.8719 7.23849 12.5471 7.23849 10C7.23849 4.47715 11.7156 0 17.2385 0C22.7613 0 27.2385 4.47715 27.2385 10Z" fill="#787878"/>
</svg>
