<svg width="30" height="30" viewBox="0 0 30 30" fill="none" xmlns="http://www.w3.org/2000/svg">
<path fill-rule="evenodd" clip-rule="evenodd" d="M24.0947 24.2891C26.5046 21.9293 28 18.6393 28 15C28 7.8203 22.1797 2 15 2C7.8203 2 2 7.8203 2 15C2 22.1797 7.8203 28 15 28C17.7852 28 20.3659 27.1241 22.4816 25.6327C21.2728 22.2581 18.3069 19.9999 15.0555 19.9999C11.7941 19.9999 8.82004 22.272 7.61837 25.6638C7.04316 25.2619 6.50197 24.8146 6 24.3272C7.20857 21.4981 9.48056 19.3276 12.2494 18.4389C9.75079 17.3702 8 14.8895 8 12C8 8.13401 11.134 5 15 5C18.866 5 22 8.13401 22 12C22 15.8538 18.8858 18.9802 15.0366 18.9999C15.0429 18.9999 15.0492 18.9999 15.0555 18.9999C16.0411 18.9999 16.979 18.7963 17.8296 18.4287C20.6005 19.307 22.8773 21.4678 24.0947 24.2891ZM15 30C23.2843 30 30 23.2843 30 15C30 6.71573 23.2843 0 15 0C6.71573 0 0 6.71573 0 15C0 23.2843 6.71573 30 15 30ZM15 17C17.7614 17 20 14.7614 20 12C20 9.23858 17.7614 7 15 7C12.2386 7 10 9.23858 10 12C10 14.7614 12.2386 17 15 17Z" fill="#616161"/>
</svg>
