<svg width="30" height="30" viewBox="0 0 30 30" fill="none" xmlns="http://www.w3.org/2000/svg">
<circle cx="15" cy="15" r="3" stroke="#616161" stroke-width="2"/>
<path fill-rule="evenodd" clip-rule="evenodd" d="M17 2H14V5V8.07089C13.167 8.19004 12.3813 8.45587 11.6698 8.84136L10.0002 7.17169L10.0001 7.17174L7.94975 5.12136L5.82843 7.24268L7.94975 9.364L7.95472 9.35902L9.39786 10.8022C8.90744 11.4556 8.52867 12.1977 8.28988 13H5H2V16H5H8.07089C8.21233 16.9888 8.56041 17.9109 9.06999 18.7213L6.95627 20.835L6.94971 20.8284L4.82839 22.9497L6.94971 25.0711L8.00343 24.0173L8.01575 24.0297L11.1792 20.8662C12.0132 21.4106 12.9705 21.7818 14 21.9291V25V26V28H17V26V25V21.7101C17.7933 21.474 18.5277 21.1011 19.1758 20.6186L21.6651 23.108L21.6794 23.0937L22.9497 24.364L25.0711 22.2427L22.9497 20.1214L22.9471 20.1241L21.1567 18.3337C21.5432 17.6214 21.8098 16.8344 21.9291 16H25H28V13H25H21.7101C21.515 12.3445 21.2265 11.7293 20.8601 11.1697L23.9291 8.10071L23.9246 8.0962L25.071 6.94975L22.9497 4.82843L21.8033 5.97488L21.7964 5.96802L18.7048 9.05964C18.1792 8.73115 17.6068 8.47048 17 8.28988V5V2ZM14 0H12V2V5V6.34318L11.4853 5.82846L9.36396 3.70714L7.94975 2.29293L6.53553 3.70714L4.41421 5.82846L3 7.24268L4.41421 8.65689L6.53553 10.7782L6.75732 11H5H2H0V13V16V18H2H5H6.51212C6.54995 18.107 6.58974 18.2131 6.63146 18.3182L5.53549 19.4142L3.41417 21.5355L1.99996 22.9497L3.41417 24.364L5.53549 26.4853L6.94971 27.8995L8.36392 26.4853L10.4852 24.364L11.5388 23.3104C11.6905 23.3736 11.8443 23.4328 12 23.4879V25V28V30H14H17H19V28V25V23.2427L19.4142 23.6569L21.5355 25.7782L22.9497 27.1924L24.364 25.7782L26.4853 23.6569L27.8995 22.2427L26.4853 20.8285L24.364 18.7071L23.6568 18H25H28H30V16V13V11H28H25H23.8492L24.3639 10.4853L26.4852 8.36396L27.8995 6.94975L26.4852 5.53553L24.3639 3.41421L22.9497 2L21.5355 3.41421L19.4142 5.53553L19 5.94971V5V2V0H17H14Z" fill="#616161"/>
</svg>
