<svg width="13" height="16" viewBox="0 0 13 16" fill="none" xmlns="http://www.w3.org/2000/svg">
<path fill-rule="evenodd" clip-rule="evenodd" d="M1.55759 0.242828C1.69966 0.00603756 2.00679 -0.070745 2.24358 0.0713291C2.48037 0.213403 2.55715 0.520533 2.41508 0.757323C1.46029 2.34864 0.040927 6.49123 1.93355 10.2765C2.05704 10.5235 1.95693 10.8238 1.70994 10.9473C1.46295 11.0708 1.16261 10.9707 1.03912 10.7237C-1.06826 6.50892 0.512374 1.98485 1.55759 0.242828ZM10.2432 0.0713291C10.48 -0.070745 10.7872 0.00603756 10.9292 0.242828C11.9745 1.98485 13.5551 6.50892 11.4477 10.7237C11.3242 10.9707 11.0239 11.0708 10.7769 10.9473C10.5299 10.8238 10.4298 10.5235 10.5533 10.2765C12.4459 6.49123 11.0265 2.34864 10.0717 0.757323C9.92967 0.520533 10.0065 0.213403 10.2432 0.0713291ZM3.63278 2.14652C3.82804 1.95126 4.14462 1.95126 4.33989 2.14652C4.53515 2.34178 4.53515 2.65837 4.33989 2.85363C3.89154 3.30197 3.32299 4.12231 3.09834 5.08833C2.8792 6.03061 2.98311 7.11519 3.87044 8.17998C4.04723 8.39212 4.01856 8.7074 3.80643 8.88419C3.59429 9.06097 3.279 9.03231 3.10222 8.82017C1.98955 7.48496 1.84346 6.06954 2.12433 4.86182C2.39967 3.67784 3.08112 2.69818 3.63278 2.14652ZM8.85405 2.14652C8.65878 1.95126 8.3422 1.95126 8.14694 2.14652C7.95168 2.34178 7.95168 2.65837 8.14694 2.85363C8.59528 3.30197 9.16383 4.12231 9.38849 5.08833C9.60762 6.03061 9.50371 7.11519 8.61638 8.17998C8.56116 8.24625 8.52599 8.32258 8.51019 8.40161L7.81369 7.00862C7.56281 7.22722 7.25688 7.38426 6.91944 7.45619L8.19142 10.0001H4.80946L6.08144 7.45619C5.744 7.38426 5.43807 7.22722 5.18719 7.00862L3.55323 10.2765L1.05323 15.2765L1.94765 15.7238L3.00044 13.6182V13.9168H10.1498L11.0532 15.7238L11.9477 15.2765L10.906 13.1932L9.44765 10.2765L8.7851 8.95144C8.98656 9.04775 9.2351 8.99957 9.3846 8.82017C10.4973 7.48496 10.6434 6.06954 10.3625 4.86182C10.0872 3.67784 9.4057 2.69818 8.85405 2.14652ZM6.50049 6.50008C7.05278 6.50008 7.50049 6.05236 7.50049 5.50008C7.50049 4.94779 7.05278 4.50008 6.50049 4.50008C5.94821 4.50008 5.50049 4.94779 5.50049 5.50008C5.50049 6.05236 5.94821 6.50008 6.50049 6.50008ZM6.50049 7.50008C7.60506 7.50008 8.50049 6.60464 8.50049 5.50008C8.50049 4.39551 7.60506 3.50008 6.50049 3.50008C5.39592 3.50008 4.50049 4.39551 4.50049 5.50008C4.50049 6.60464 5.39592 7.50008 6.50049 7.50008ZM8.69142 11.0001L9.64976 12.9168H3.35112L4.30946 11.0001H8.69142Z" fill="#6C6C6C"/>
</svg>
