<svg width="16" height="18" viewBox="0 0 16 18" fill="none" xmlns="http://www.w3.org/2000/svg">
<path d="M15.5762 12.1777C15.7754 12.377 15.875 12.6426 15.875 12.875C15.8418 13.4395 15.4434 13.9375 14.7793 13.9375H2.0625C1.39844 13.9375 1 13.4395 1 12.875C0.966797 12.6426 1.06641 12.377 1.26562 12.1777C1.89648 11.4805 3.125 10.4512 3.125 7.03125C3.125 4.47461 4.91797 2.41602 7.375 1.88477V1.1875C7.375 0.623047 7.83984 0.125 8.4375 0.125C9.00195 0.125 9.4668 0.623047 9.4668 1.1875V1.88477C11.9238 2.41602 13.7168 4.47461 13.7168 7.03125C13.7168 10.4512 14.9453 11.4805 15.5762 12.1777ZM3.22461 12.3438H13.6172C12.9199 11.4473 12.1562 9.88672 12.123 7.06445C12.123 7.06445 12.1562 7.06445 12.1562 7.03125C12.1562 5.00586 10.4629 3.3125 8.4375 3.3125C6.37891 3.3125 4.71875 5.00586 4.71875 7.03125C4.71875 7.06445 4.71875 7.06445 4.71875 7.06445C4.68555 9.88672 3.92188 11.4473 3.22461 12.3438ZM8.4375 17.125C7.24219 17.125 6.3125 16.1953 6.3125 15H10.5293C10.5293 16.1953 9.59961 17.125 8.4375 17.125Z" fill="#CCCCCC"/>
</svg>
