<svg width="30" height="26" viewBox="0 0 30 26" fill="none" xmlns="http://www.w3.org/2000/svg">
<path fill-rule="evenodd" clip-rule="evenodd" d="M20 11.3871C18.3431 11.3871 17 10.0439 17 8.38706V3C17 1.34315 18.3431 0 20 0H27C28.6569 0 30 1.34315 30 3V8.38706C30 10.0439 28.6569 11.3871 27 11.3871H20ZM19 8.38706V3C19 2.44772 19.4477 2 20 2H27C27.5523 2 28 2.44771 28 3V8.38706C28 8.93935 27.5523 9.38706 27 9.38706H20C19.4477 9.38706 19 8.93935 19 8.38706Z" fill="#D9D9D9"/>
<path fill-rule="evenodd" clip-rule="evenodd" d="M21 25.4019C22.6569 25.4019 24 24.0588 24 22.4019V17.0148C24 15.358 22.6569 14.0148 21 14.0148H13V7.37964C13 5.72278 11.6569 4.37964 10 4.37964H3C1.34315 4.37964 0 5.72278 0 7.37964V22.4019C0 24.0588 1.34315 25.4019 3 25.4019H21ZM10 6.37964H3C2.44771 6.37964 2 6.82735 2 7.37964V14.0148H11V7.37964C11 6.82735 10.5523 6.37964 10 6.37964ZM2 22.4019V16.0148H11V23.4019H3C2.44772 23.4019 2 22.9542 2 22.4019ZM13 23.4019V16.0148H21C21.5523 16.0148 22 16.4626 22 17.0148V22.4019C22 22.9542 21.5523 23.4019 21 23.4019H13Z" fill="#D9D9D9"/>
</svg>
