<svg width="26" height="26" viewBox="0 0 26 26" fill="none" xmlns="http://www.w3.org/2000/svg">
<path fill-rule="evenodd" clip-rule="evenodd" d="M11 0.124048V0H21V0.26146L25.757 4.42825C25.7927 4.54969 25.8247 4.67272 25.8528 4.79722L26 4.92616V17.3945C26 18.499 25.1046 19.3945 24 19.3945H10C8.89543 19.3945 8 18.499 8 17.3945V2.12405C8 1.01948 8.89543 0.124048 10 0.124048H11ZM18.5 2.12405V7.25554H24V17.3945L10 17.3945V2.12405L18.5 2.12405ZM20.5 5.25554V2.76732L23.3407 5.25554H20.5Z" fill="#D9D9D9"/>
<path d="M3 6.25557H8V8.25557H3C2.44772 8.25557 2 8.70328 2 9.25557L2 23.526L17 23.526V19.3944H19V23.526C19 24.6305 18.1046 25.526 17 25.526H2C0.895431 25.526 0 24.6306 0 23.526V9.25557C0 7.59872 1.34315 6.25557 3 6.25557Z" fill="#D9D9D9"/>
</svg>
