<svg width="28" height="26" viewBox="0 0 28 26" fill="none" xmlns="http://www.w3.org/2000/svg">
<path fill-rule="evenodd" clip-rule="evenodd" d="M27.1923 8.75928C27.1923 13.5969 22.7151 17.5186 17.1923 17.5186C14.9609 17.5186 12.9001 16.8784 11.2364 15.7962L1.38458 25.2476L0 23.8044L9.66821 14.5292C8.12664 12.9881 7.19229 10.9692 7.19229 8.75928C7.19229 3.92166 11.6694 0 17.1923 0C22.7151 0 27.1923 3.92166 27.1923 8.75928ZM25.1923 8.75928C25.1923 12.2517 21.8677 15.5186 17.1923 15.5186C12.5169 15.5186 9.19229 12.2517 9.19229 8.75928C9.19229 5.26689 12.5169 2 17.1923 2C21.8677 2 25.1923 5.26689 25.1923 8.75928Z" fill="#D9D9D9"/>
</svg>
