<svg width="30" height="30" viewBox="0 0 30 30" fill="none" xmlns="http://www.w3.org/2000/svg">
<path fill-rule="evenodd" clip-rule="evenodd" d="M24.0946 24.2892C26.5045 21.9294 28 18.6393 28 15C28 7.8203 22.1797 2 15 2C7.8203 2 2 7.8203 2 15C2 22.1797 7.8203 28 15 28C17.7852 28 20.3658 27.1241 22.4815 25.6328C21.2727 22.2581 18.3068 20 15.0554 20C11.794 20 8.81994 22.272 7.61828 25.6639C7.04306 25.262 6.50187 24.8147 5.9999 24.3273C7.2085 21.4981 9.48055 19.3276 12.2495 18.4389C9.75081 17.3702 8 14.8896 8 12C8 8.13401 11.134 5 15 5C18.866 5 22 8.13401 22 12C22 15.8568 18.881 18.985 15.0277 18.9999C15.0369 19 15.0462 19 15.0554 19C16.041 19 16.9789 18.7963 17.8295 18.4288C20.6004 19.307 22.8772 21.4678 24.0946 24.2892ZM15 30C23.2843 30 30 23.2843 30 15C30 6.71573 23.2843 0 15 0C6.71573 0 0 6.71573 0 15C0 23.2843 6.71573 30 15 30ZM15 17C17.7614 17 20 14.7614 20 12C20 9.23858 17.7614 7 15 7C12.2386 7 10 9.23858 10 12C10 14.7614 12.2386 17 15 17Z" fill="#868686"/>
</svg>
